<svg width="1200" height="630" viewBox="0 0 1200 630" xmlns="http://www.w3.org/2000/svg">
  <defs>
    <linearGradient id="g" x1="0" y1="0" x2="1" y2="1">
      <stop offset="0%" stop-color="#0f172a"/>
      <stop offset="100%" stop-color="#1e293b"/>
    </linearGradient>
  </defs>
  <rect width="1200" height="630" fill="url(#g)"/>
  <rect x="280" y="90" width="640" height="450" rx="18" fill="#020617" stroke="#334155" stroke-width="3"/>
  <g stroke="#334155" stroke-width="2">
    <line x1="351" y1="90" x2="351" y2="540"/><line x1="422" y1="90" x2="422" y2="540"/>
    <line x1="564" y1="90" x2="564" y2="540"/><line x1="635" y1="90" x2="635" y2="540"/>
    <line x1="777" y1="90" x2="777" y2="540"/><line x1="848" y1="90" x2="848" y2="540"/>
    <line x1="280" y1="140" x2="920" y2="140"/><line x1="280" y1="190" x2="920" y2="190"/>
    <line x1="280" y1="290" x2="920" y2="290"/><line x1="280" y1="340" x2="920" y2="340"/>
    <line x1="280" y1="440" x2="920" y2="440"/><line x1="280" y1="490" x2="920" y2="490"/>
  </g>
  <g stroke="#94a3b8" stroke-width="4">
    <line x1="493" y1="90" x2="493" y2="540"/><line x1="706" y1="90" x2="706" y2="540"/>
    <line x1="280" y1="240" x2="920" y2="240"/><line x1="280" y1="390" x2="920" y2="390"/>
  </g>
  <text x="80" y="140" fill="#38bdf8" font-size="64" font-family="Arial, sans-serif" font-weight="700">SUDOKU</text>
  <text x="80" y="200" fill="#94a3b8" font-size="30" font-family="Arial, sans-serif">Free Browser Game · CodelithLabs</text>
</svg>
